<svg xmlns="http://www.w3.org/2000/svg" width="29" height="29" viewBox="0 0 29 29">
  <g id="Icon_feather-instagram" data-name="Icon feather-instagram" transform="translate(-1.5 -1.5)">
    <path id="Path_205" data-name="Path 205" d="M9.5,3h13A6.5,6.5,0,0,1,29,9.5v13A6.5,6.5,0,0,1,22.5,29H9.5A6.5,6.5,0,0,1,3,22.5V9.5A6.5,6.5,0,0,1,9.5,3Z" fill="none" stroke="#f5f8fc" stroke-linecap="round" stroke-linejoin="round" stroke-width="3"/>
    <path id="Path_206" data-name="Path 206" d="M24,17.055A6,6,0,1,1,18.945,12,6,6,0,0,1,24,17.055Z" transform="translate(-2.014 -1.986)" fill="none" stroke="#f5f8fc" stroke-linecap="round" stroke-linejoin="round" stroke-width="3"/>
    <path id="Path_207" data-name="Path 207" d="M26.25,9.75h0" transform="translate(-3.1 -0.9)" fill="none" stroke="#f5f8fc" stroke-linecap="round" stroke-linejoin="round" stroke-width="3"/>
  </g>
</svg>
