<svg xmlns="http://www.w3.org/2000/svg" width="26" height="26" viewBox="0 0 26 26">
  <path id="Icon_awesome-twitter-square" data-name="Icon awesome-twitter-square" d="M23.214,2.25H2.786A2.786,2.786,0,0,0,0,5.036V25.464A2.786,2.786,0,0,0,2.786,28.25H23.214A2.786,2.786,0,0,0,26,25.464V5.036A2.786,2.786,0,0,0,23.214,2.25Zm-2.838,9.216c.012.162.012.331.012.493A10.756,10.756,0,0,1,9.558,22.789a10.78,10.78,0,0,1-5.844-1.706,8.019,8.019,0,0,0,.917.046A7.631,7.631,0,0,0,9.355,19.5,3.811,3.811,0,0,1,5.8,16.863a4.1,4.1,0,0,0,1.718-.07,3.807,3.807,0,0,1-3.047-3.737V13.01a3.8,3.8,0,0,0,1.718.482,3.8,3.8,0,0,1-1.695-3.169A3.759,3.759,0,0,1,5.008,8.4a10.808,10.808,0,0,0,7.846,3.981,3.814,3.814,0,0,1,6.494-3.476,7.459,7.459,0,0,0,2.414-.917,3.8,3.8,0,0,1-1.671,2.1,7.575,7.575,0,0,0,2.194-.592A8.012,8.012,0,0,1,20.376,11.466Z" transform="translate(0 -2.25)" fill="#f5f8fc"/>
</svg>
