<svg xmlns="http://www.w3.org/2000/svg" width="33.176" height="26.501" viewBox="0 0 33.176 26.501">
  <path id="Icon_ionic-logo-youtube" data-name="Icon ionic-logo-youtube" d="M32.96,10.352c0-3.105-2.145-5.6-4.8-5.6-3.59-.179-7.252-.248-10.991-.248H16.007c-3.733,0-7.4.069-10.991.248C2.372,4.748.227,7.26.227,10.366.065,12.823-.007,15.279,0,17.736s.065,4.913.22,7.377c0,3.105,2.145,5.624,4.789,5.624,3.772.186,7.641.269,11.574.262q5.91.021,11.574-.262c2.651,0,4.8-2.519,4.8-5.624.156-2.464.227-4.92.22-7.384Q33.194,14.044,32.96,10.352ZM13.415,24.506V10.945l9.4,6.777Z" transform="translate(0 -4.5)" fill="#f5f8fc"/>
</svg>
