<svg xmlns="http://www.w3.org/2000/svg" width="26.029" height="24.973" viewBox="0 0 26.029 24.973">
  <path id="Icon_awesome-headphones" data-name="Icon awesome-headphones" d="M13.015,2.25C5.822,2.25,0,8.632,0,16.52V19.2a1.809,1.809,0,0,0,.9,1.6l.731.4a5.965,5.965,0,0,0,5.69,6.031h1.22a1.283,1.283,0,0,0,1.22-1.338V16.074a1.283,1.283,0,0,0-1.22-1.338H7.321a5.444,5.444,0,0,0-4.067,1.874V16.52c0-5.9,4.379-10.7,9.761-10.7s9.761,4.8,9.761,10.7v.091a5.444,5.444,0,0,0-4.067-1.874h-1.22a1.283,1.283,0,0,0-1.22,1.338v9.811a1.283,1.283,0,0,0,1.22,1.338h1.22a5.965,5.965,0,0,0,5.69-6.031l.731-.4a1.809,1.809,0,0,0,.9-1.6V16.52C26.029,8.634,20.208,2.25,13.015,2.25Z" transform="translate(0 -2.25)"/>
</svg>
