<svg xmlns="http://www.w3.org/2000/svg" width="28.186" height="21.051" viewBox="0 0 28.186 21.051">
  <g id="listening_icon" data-name="listening icon" transform="translate(-748.502 -208)">
    <path id="ic_library_books_24px" d="M3.812,6.21H2V20.946a1.981,1.981,0,0,0,1.812,2.105H16.5V20.946H3.812ZM18.311,2H7.437A1.981,1.981,0,0,0,5.625,4.105v12.63a1.981,1.981,0,0,0,1.812,2.105H18.311a1.981,1.981,0,0,0,1.812-2.105V4.105A1.981,1.981,0,0,0,18.311,2ZM17.4,11.473H8.343V9.368H17.4Zm-3.625,4.21H8.343V13.578H13.78ZM17.4,7.263H8.343V5.158H17.4Z" transform="translate(756.564 206)" fill="#263126"/>
    <path id="ic_volume_up_24px" d="M3,5.232V7.314H4.683l2.1,1.735V3.5l-2.1,1.735ZM8.679,6.273a1.564,1.564,0,0,0-1.052-1.4V7.667A1.556,1.556,0,0,0,8.679,6.273ZM7.627,3.23v.715a2.545,2.545,0,0,1,2.1,2.328A2.545,2.545,0,0,1,7.627,8.6v.715a3.323,3.323,0,0,0,2.945-3.043A3.323,3.323,0,0,0,7.627,3.23Z" transform="translate(745.502 206.984)" fill="#263126"/>
  </g>
</svg>
