<svg xmlns="http://www.w3.org/2000/svg" xmlns:xlink="http://www.w3.org/1999/xlink" width="46" height="46" viewBox="0 0 46 46">
  <defs>
    <filter id="ic_power_settings_new_24px" x="0" y="0" width="46" height="46" filterUnits="userSpaceOnUse">
      <feOffset dy="3" input="SourceAlpha"/>
      <feGaussianBlur stdDeviation="3" result="blur"/>
      <feFlood flood-color="#c4dbf6"/>
      <feComposite operator="in" in2="blur"/>
      <feComposite in="SourceGraphic"/>
    </filter>
  </defs>
  <g transform="matrix(1, 0, 0, 1, 0, 0)" filter="url(#ic_power_settings_new_24px)">
    <path id="ic_power_settings_new_24px-2" data-name="ic_power_settings_new_24px" d="M18.556,3H15.444V18.556h3.111Zm7.513,3.376L23.86,8.584A10.765,10.765,0,0,1,27.889,17a11.137,11.137,0,0,1-3.176,7.691A10.586,10.586,0,0,1,17,27.889a10.88,10.88,0,0,1-6.876-19.32L7.931,6.376A13.987,13.987,0,1,0,31,17,13.9,13.9,0,0,0,26.069,6.376Z" transform="translate(6 3)" fill="#163374"/>
  </g>
</svg>
