<svg xmlns="http://www.w3.org/2000/svg" width="25.684" height="30.179" viewBox="0 0 25.684 30.179">
  <path id="Icon_awesome-book" data-name="Icon awesome-book" d="M25.684,21.219V1.415A1.392,1.392,0,0,0,24.308,0H5.5A5.584,5.584,0,0,0,0,5.659V24.52a5.584,5.584,0,0,0,5.5,5.659h18.8a1.392,1.392,0,0,0,1.376-1.415v-.943a1.441,1.441,0,0,0-.51-1.1,13.509,13.509,0,0,1,0-4.4A1.42,1.42,0,0,0,25.684,21.219ZM7.338,7.9a.35.35,0,0,1,.344-.354H19.836a.35.35,0,0,1,.344.354V9.077a.35.35,0,0,1-.344.354H7.682a.35.35,0,0,1-.344-.354Zm0,3.772a.35.35,0,0,1,.344-.354H19.836a.35.35,0,0,1,.344.354V12.85a.35.35,0,0,1-.344.354H7.682a.35.35,0,0,1-.344-.354ZM21.865,26.406H5.5a1.887,1.887,0,0,1,0-3.772H21.865A21.815,21.815,0,0,0,21.865,26.406Z" fill="#263126"/>
</svg>
