<svg xmlns="http://www.w3.org/2000/svg" width="30.937" height="21.618" viewBox="0 0 30.937 21.618">
  <path id="Icon_metro-gamepad" data-name="Icon metro-gamepad" d="M24.125,6.927c-1.326,0-3.9,1.873-6.088,1.873S13.12,6.927,11.95,6.927c-8.039,0-12.644,21.618-6.634,21.618,5.073,0,5.756-6.322,12.7-6.322,5.62,0,8.917,6.245,12.664,6.245.992,0,1.7-.586,2.263-1.846,2.157-4.676-2.106-19.7-8.819-19.7ZM11.48,19.1A4.215,4.215,0,1,1,15.7,14.888,4.216,4.216,0,0,1,11.48,19.1Zm11.181-2.341a.937.937,0,1,1,.937-.937A.936.936,0,0,1,22.661,16.762Zm2.869,2.81a.937.937,0,1,1,.937-.937A.936.936,0,0,1,25.53,19.571Zm0-5.62a.937.937,0,1,1,.937-.937A.936.936,0,0,1,25.53,13.952Zm2.81,2.81a.937.937,0,1,1,.937-.937A.936.936,0,0,1,28.34,16.762ZM11.48,12.547a2.341,2.341,0,1,0,2.341,2.341A2.342,2.342,0,0,0,11.48,12.547Z" transform="translate(-2.572 -6.927)" fill="#263126"/>
</svg>
