<svg xmlns="http://www.w3.org/2000/svg" width="27.084" height="26.726" viewBox="0 0 27.084 26.726">
  <g id="prediction_file" data-name="prediction file" transform="translate(-159 -470)">
    <g id="Group_8" data-name="Group 8" transform="translate(159 470)">
      <path id="ic_tab_24px" d="M25.622,3H3.462A2.76,2.76,0,0,0,1,5.97V26.756a2.76,2.76,0,0,0,2.462,2.97h22.16a2.76,2.76,0,0,0,2.462-2.97V5.97A2.76,2.76,0,0,0,25.622,3Zm0,23.756H3.462V5.97H15.773v5.939h9.849Z" transform="translate(-1 -3)" fill="#263126"/>
    </g>
    <path id="ic_help_24px" d="M7.728,2A5.463,5.463,0,0,0,2,7.147a5.463,5.463,0,0,0,5.728,5.147,5.463,5.463,0,0,0,5.728-5.147A5.463,5.463,0,0,0,7.728,2ZM8.3,10.751H7.155V9.721H8.3ZM9.486,6.761l-.515.474A1.677,1.677,0,0,0,8.3,8.692H7.155V8.434a1.972,1.972,0,0,1,.67-1.457l.71-.649A.959.959,0,0,0,8.873,5.6,1.1,1.1,0,0,0,7.728,4.574,1.1,1.1,0,0,0,6.582,5.6H5.437A2.184,2.184,0,0,1,7.728,3.544,2.184,2.184,0,0,1,10.019,5.6,1.559,1.559,0,0,1,9.486,6.761Z" transform="translate(163.511 478.353)" fill="#263126"/>
  </g>
</svg>
