<svg xmlns="http://www.w3.org/2000/svg" width="30.439" height="23.902" viewBox="0 0 30.439 23.902">
  <path id="Icon_awesome-shopping-cart" data-name="Icon awesome-shopping-cart" d="M27.909,14.067l2.5-9.71a1.164,1.164,0,0,0-1.237-1.369H8.414L7.929.9A1.241,1.241,0,0,0,6.687,0H1.268A1.2,1.2,0,0,0,0,1.12v.747a1.2,1.2,0,0,0,1.268,1.12H4.961L8.674,19.021a2.577,2.577,0,0,0-1.487,2.267A2.8,2.8,0,0,0,10.146,23.9a2.8,2.8,0,0,0,2.959-2.614,2.468,2.468,0,0,0-.889-1.867H23.3a2.468,2.468,0,0,0-.889,1.867A2.8,2.8,0,0,0,25.366,23.9a2.8,2.8,0,0,0,2.959-2.614,2.609,2.609,0,0,0-1.669-2.353l.292-1.133a1.164,1.164,0,0,0-1.237-1.369H11.527l-.346-1.494H26.672A1.245,1.245,0,0,0,27.909,14.067Z" fill="#263126"/>
</svg>
