<svg xmlns="http://www.w3.org/2000/svg" width="35.578" height="26.778" viewBox="0 0 35.578 26.778">
  <g id="study_plan" data-name="study plan" transform="translate(-75 -541.157)">
    <g id="Group_118" data-name="Group 118">
      <path id="ic_import_contacts_24px" d="M33.344,5.288a19.564,19.564,0,0,0-5.66-.788c-3.154,0-6.55.63-8.895,2.363C16.444,5.13,13.048,4.5,9.895,4.5S3.345,5.13,1,6.863V29.939a.859.859,0,0,0,.809.788c.162,0,.243-.079.4-.079a20.176,20.176,0,0,1,7.682-1.733c3.154,0,6.55.63,8.895,2.363a19.879,19.879,0,0,1,8.895-2.363,16.827,16.827,0,0,1,7.682,1.654.746.746,0,0,0,.4.079.859.859,0,0,0,.809-.788v-23A11.148,11.148,0,0,0,33.344,5.288Zm0,21.265a19.258,19.258,0,0,0-5.66-.788,19.879,19.879,0,0,0-8.895,2.363V10.013A19.879,19.879,0,0,1,27.684,7.65a19.258,19.258,0,0,1,5.66.788Z" transform="translate(74 536.657)" fill="#263126"/>
      <path id="ic_alarm_add_24px" d="M5.615,2.719,4.828,1.86,2,4.022l.793.859L5.615,2.719ZM14.3,4.027,11.469,1.86l-.793.859L13.5,4.886ZM8.148,3.062A5.31,5.31,0,0,0,2.615,8.115a5.306,5.306,0,0,0,5.534,5.053,5.31,5.31,0,0,0,5.534-5.053A5.31,5.31,0,0,0,8.148,3.062Zm0,8.983a4.127,4.127,0,0,1-4.3-3.93,4.127,4.127,0,0,1,4.3-3.93,4.127,4.127,0,0,1,4.3,3.93A4.127,4.127,0,0,1,8.148,12.045Zm.615-6.176H7.534V7.553H5.689V8.676H7.534v1.684h1.23V8.676h1.845V7.553H8.763Z" transform="translate(92.281 547.032)" fill="#263126"/>
    </g>
  </g>
</svg>
