<svg xmlns="http://www.w3.org/2000/svg" width="28.512" height="25.286" viewBox="0 0 28.512 25.286">
  <path id="Icon_awesome-youtube-square" data-name="Icon awesome-youtube-square" d="M11.888,11.851,17.947,14.9l-6.059,3.054ZM28.512,4.959V24.827a2.9,2.9,0,0,1-3.055,2.709H3.055A2.9,2.9,0,0,1,0,24.827V4.959A2.9,2.9,0,0,1,3.055,2.25h22.4A2.9,2.9,0,0,1,28.512,4.959ZM25.839,14.91a24.127,24.127,0,0,0-.484-4.978A2.758,2.758,0,0,0,23.306,8.1c-1.8-.435-9.05-.435-9.05-.435s-7.249,0-9.05.435A2.758,2.758,0,0,0,3.157,9.932a24.1,24.1,0,0,0-.484,4.978,24.127,24.127,0,0,0,.484,4.978,2.725,2.725,0,0,0,2.049,1.8c1.8.429,9.05.429,9.05.429s7.249,0,9.05-.435a2.725,2.725,0,0,0,2.049-1.8,24.053,24.053,0,0,0,.484-4.973Z" transform="translate(0 -2.25)" fill="#263126"/>
</svg>
