<svg xmlns="http://www.w3.org/2000/svg" width="98.24" height="79.55" viewBox="0 0 98.24 79.55">
  <g id="dictation" transform="translate(-160.104 -214)">
    <path id="ic_hearing_24px" d="M35.768,47.5a4.263,4.263,0,0,1-1.779-.37c-1.662-.912-2.832-2.168-4-5.865-1.194-3.844-3.441-5.643-5.594-7.392a18.39,18.39,0,0,1-5.43-6.234,16.061,16.061,0,0,1-1.919-7.244c0-6.9,5.149-12.32,11.7-12.32s11.7,5.421,11.7,12.32H45.13c0-9.684-7.186-17.249-16.384-17.249S12.362,10.707,12.362,20.391a21.229,21.229,0,0,0,2.5,9.61,23.077,23.077,0,0,0,6.671,7.762c1.9,1.528,3.253,2.637,4,5.051,1.4,4.485,3.207,7,6.39,8.748a8.948,8.948,0,0,0,3.839.862,9.616,9.616,0,0,0,9.362-9.856H40.449A4.824,4.824,0,0,1,35.768,47.5ZM13.86,4.719l-3.324-3.5A27.754,27.754,0,0,0,3,20.391a27.754,27.754,0,0,0,7.537,19.171l3.3-3.474a22.81,22.81,0,0,1-6.156-15.7A22.617,22.617,0,0,1,13.86,4.719Zm9.035,15.672a6.014,6.014,0,0,0,5.851,6.16,6.014,6.014,0,0,0,5.851-6.16,6.014,6.014,0,0,0-5.851-6.16A6.014,6.014,0,0,0,22.895,20.391Z" transform="translate(157.104 212.78)" fill="#263126"/>
    <path id="ic_subject_24px" d="M34.84,50.9H4v7.65H34.84Zm18.5-30.6H4v7.65H53.344ZM4,43.25H53.344V35.6H4ZM4,5v7.65H53.344V5Z" transform="translate(205 235)" fill="#263126"/>
    <path id="Path_133" data-name="Path 133" d="M24.218,10.294,18.7,4.78,4,19.484V25H9.514ZM28.57,5.941a1.464,1.464,0,0,0,0-2.073L25.129.428a1.464,1.464,0,0,0-2.073,0L20.174,3.31l5.514,5.514Z" transform="translate(226 266.553)" fill="#263126" stroke="#fff" stroke-width="1.5"/>
  </g>
</svg>
