<svg xmlns="http://www.w3.org/2000/svg" width="90" height="110" viewBox="0 0 90 110">
  <g id="essay" transform="translate(-334 -368)">
    <path id="ic_assignment_24px" d="M83,12H62.1C60,5.62,54.5,1,48,1S36,5.62,33.9,12H13C7.5,12,3,16.95,3,23v77c0,6.05,4.5,11,10,11H83c5.5,0,10-4.95,10-11V23C93,16.95,88.5,12,83,12ZM48,12a5.283,5.283,0,0,1,5,5.5A5.283,5.283,0,0,1,48,23a5.283,5.283,0,0,1-5-5.5A5.283,5.283,0,0,1,48,12ZM58,89H23V78H58ZM73,67H23V56H73Zm0-22H23V34H73Z" transform="translate(331 367)" fill="#263126"/>
    <path id="Path_82" data-name="Path 82" d="M24.218,10.294,18.7,4.78,4,19.484V25H9.514ZM28.57,5.941a1.464,1.464,0,0,0,0-2.073L25.129.428a1.464,1.464,0,0,0-2.073,0L20.174,3.31l5.514,5.514Z" transform="translate(395 450.002)" fill="#fff"/>
  </g>
</svg>
