<svg xmlns="http://www.w3.org/2000/svg" width="130.415" height="60.105" viewBox="0 0 130.415 60.105">
  <g id="ic_border_color_24px" transform="translate(0 -17.997)">
    <path id="Path_81" data-name="Path 81" d="M44.435,20.59,33.407,9.562,4,38.97V50H15.028Zm8.7-8.7a2.929,2.929,0,0,0,0-4.146L46.258.858a2.929,2.929,0,0,0-4.146,0L36.348,6.622,47.376,17.649Z" transform="translate(76.415 18)" fill="#263126"/>
    <path id="Path_82" data-name="Path 82" d="M0,20H123.415v4H0Z" transform="translate(0 54.103)" fill="#263126"/>
    <path id="ic_touch_app_24px" d="M10.382,12.886V8.4a3.169,3.169,0,0,1,3.313-3,3.169,3.169,0,0,1,3.313,3v4.487A5.269,5.269,0,0,0,19.659,8.4,5.7,5.7,0,0,0,13.7,3,5.7,5.7,0,0,0,7.732,8.4,5.269,5.269,0,0,0,10.382,12.886Zm13.041,5.555L17.406,15.73a2.036,2.036,0,0,0-.716-.132H15.683V8.4A1.9,1.9,0,0,0,13.7,6.6a1.9,1.9,0,0,0-1.988,1.8V21.285l-4.546-.864a2.547,2.547,0,0,0-.318-.036,1.563,1.563,0,0,0-1.047.4l-1.047.96L11.3,27.668a2.1,2.1,0,0,0,1.4.528h9a1.874,1.874,0,0,0,1.908-1.536l.994-6.323a1.638,1.638,0,0,0,.027-.24,1.8,1.8,0,0,0-1.206-1.656Z" transform="translate(1.87 36.998)" fill="#263126"/>
  </g>
</svg>
