<svg xmlns="http://www.w3.org/2000/svg" width="116.303" height="82.825" viewBox="0 0 116.303 82.825">
  <g id="ic_format_color_text_24px" transform="translate(20.23 14.38)">
    <path id="ic_playlist_add_check_24px" d="M61.507,26.587H2V36.88H61.507ZM61.507,6H2V16.293H61.507ZM2,57.467H41.671V47.173H2Zm96.7-23.16,7.438,7.72L71.475,78.053,49.11,54.893l7.438-7.72,14.926,15.44Z" transform="translate(-10.065 -9.608)" fill="#263126"/>
    <path id="Path_134" data-name="Path 134" d="M27.392,13.713,19.921,6.37,0,25.953V33.3H7.47Zm5.9-5.8a1.927,1.927,0,0,0,0-2.761L28.627.573a2.008,2.008,0,0,0-2.809,0l-3.9,3.838,7.47,7.344Z" transform="matrix(-0.035, -0.999, 0.999, -0.035, -18.112, 21.408)" fill="#263126" stroke="#fff" stroke-width="1.5"/>
    <path id="Path_136" data-name="Path 136" d="M60.664-3.608Z" transform="translate(18.217)" fill="none" stroke="#707070" stroke-width="1"/>
  </g>
</svg>
