<svg xmlns="http://www.w3.org/2000/svg" width="71.032" height="55.739" viewBox="0 0 71.032 55.739">
  <g id="Group_120" data-name="Group 120" transform="translate(-60.7 -386.5)">
    <path id="Icon_ionic-md-person" data-name="Icon ionic-md-person" d="M31.766,32.37A13.827,13.827,0,0,0,45.4,18.435,13.827,13.827,0,0,0,31.766,4.5,13.827,13.827,0,0,0,18.133,18.435,13.827,13.827,0,0,0,31.766,32.37Zm0,6.967c-9.032,0-27.266,4.7-27.266,13.935v6.967H59.032V53.272C59.032,44.04,40.8,39.337,31.766,39.337Z" transform="translate(56.2 382)" fill="#263126"/>
    <path id="Icon_ionic-ios-settings" data-name="Icon ionic-ios-settings" d="M29.271,18A3.474,3.474,0,0,1,31.5,14.759a13.772,13.772,0,0,0-1.666-4.015,3.521,3.521,0,0,1-1.413.3,3.467,3.467,0,0,1-3.171-4.88A13.73,13.73,0,0,0,21.241,4.5a3.471,3.471,0,0,1-6.483,0,13.772,13.772,0,0,0-4.015,1.666,3.467,3.467,0,0,1-3.171,4.88,3.406,3.406,0,0,1-1.413-.3A14.076,14.076,0,0,0,4.5,14.766a3.473,3.473,0,0,1,.007,6.483,13.772,13.772,0,0,0,1.666,4.015,3.468,3.468,0,0,1,4.577,4.577,13.852,13.852,0,0,0,4.015,1.666,3.465,3.465,0,0,1,6.469,0,13.772,13.772,0,0,0,4.015-1.666,3.472,3.472,0,0,1,4.577-4.577,13.852,13.852,0,0,0,1.666-4.015A3.491,3.491,0,0,1,29.271,18ZM18.063,23.618a5.625,5.625,0,1,1,5.625-5.625A5.623,5.623,0,0,1,18.063,23.618Z" transform="translate(100.232 390.996)" fill="#263126"/>
  </g>
</svg>
