<svg xmlns="http://www.w3.org/2000/svg" width="90" height="110" viewBox="0 0 90 110">
  <g id="Group_5" data-name="Group 5" transform="translate(-876 -269)">
    <g id="Group_4" data-name="Group 4" transform="translate(1 3)">
      <path id="ic_content_paste_24px" d="M83,10H62.1a14.94,14.94,0,0,0-28.2,0H13A10.029,10.029,0,0,0,3,20v80a10.029,10.029,0,0,0,10,10H83a10.029,10.029,0,0,0,10-10V20A10.029,10.029,0,0,0,83,10ZM48,10a5,5,0,1,1-5,5A5.015,5.015,0,0,1,48,10Zm35,90H13V20H23V35H73V20H83Z" transform="translate(872 266)" fill="#263126"/>
    </g>
    <path id="Path_96" data-name="Path 96" d="M98.571,120H89.429A1.428,1.428,0,0,0,88,121.429v9.143A1.428,1.428,0,0,0,89.429,132h9.143A1.428,1.428,0,0,0,100,130.571v-9.143A1.428,1.428,0,0,0,98.571,120Zm-1.429,9.143H90.857v-6.286h6.286Zm0,0" transform="translate(812.862 191.477)" fill="#263126"/>
    <path id="Path_97" data-name="Path 97" d="M211.533,137.637a1.193,1.193,0,0,0,1.759,0l5.616-5.959a1.378,1.378,0,0,0,0-1.866,1.194,1.194,0,0,0-1.759,0l-4.736,5.025-1.888-2a1.194,1.194,0,0,0-1.759,0,1.378,1.378,0,0,0,0,1.866Zm0,0" transform="translate(721.444 183.099)" fill="#263126"/>
    <path id="Path_98" data-name="Path 98" d="M98.571,120H89.429A1.428,1.428,0,0,0,88,121.429v9.143A1.428,1.428,0,0,0,89.429,132h9.143A1.428,1.428,0,0,0,100,130.571v-9.143A1.428,1.428,0,0,0,98.571,120Zm-1.429,9.143H90.857v-6.286h6.286Zm0,0" transform="translate(812.862 208.477)" fill="#263126"/>
    <path id="Path_99" data-name="Path 99" d="M223.9,355.76l2.084,2.1a1.335,1.335,0,0,0,1.9,0,1.364,1.364,0,0,0,0-1.917l-2.083-2.1,2.083-2.1a1.364,1.364,0,0,0,0-1.917,1.335,1.335,0,0,0-1.9,0l-2.084,2.1-2.083-2.1a1.336,1.336,0,0,0-1.9,0,1.365,1.365,0,0,0,0,1.917l2.084,2.1-2.084,2.1a1.365,1.365,0,0,0,0,1.917,1.336,1.336,0,0,0,1.9,0Zm0,0" transform="translate(710.541 -19.198)" fill="#263126"/>
    <path id="Path_110" data-name="Path 110" d="M98.571,120H89.429A1.428,1.428,0,0,0,88,121.429v9.143A1.428,1.428,0,0,0,89.429,132h9.143A1.428,1.428,0,0,0,100,130.571v-9.143A1.428,1.428,0,0,0,98.571,120Zm-1.429,9.143H90.857v-6.286h6.286Zm0,0" transform="translate(812.862 226.477)" fill="#263126"/>
    <path id="Path_111" data-name="Path 111" d="M211.533,137.637a1.193,1.193,0,0,0,1.759,0l5.616-5.959a1.378,1.378,0,0,0,0-1.866,1.194,1.194,0,0,0-1.759,0l-4.736,5.025-1.888-2a1.194,1.194,0,0,0-1.759,0,1.378,1.378,0,0,0,0,1.866Zm0,0" transform="translate(720.444 219.099)" fill="#263126"/>
  </g>
</svg>
