<svg xmlns="http://www.w3.org/2000/svg" width="120" height="100" viewBox="0 0 120 100">
  <path id="ic_import_contacts_24px" d="M110.091,7.441A60.051,60.051,0,0,0,91,4.5c-10.636,0-22.091,2.353-30,8.824C53.091,6.853,41.636,4.5,31,4.5S8.909,6.853,1,13.324V99.5a3.055,3.055,0,0,0,2.727,2.941c.545,0,.818-.294,1.364-.294A62.59,62.59,0,0,1,31,95.676c10.636,0,22.091,2.353,30,8.824,7.364-5,20.727-8.824,30-8.824,9,0,18.273,1.765,25.909,6.176a2.308,2.308,0,0,0,1.364.294A3.055,3.055,0,0,0,121,99.206V13.324A36.225,36.225,0,0,0,110.091,7.441Zm0,79.412A59.117,59.117,0,0,0,91,83.912c-9.273,0-22.636,3.824-30,8.824V25.088c7.364-5,20.727-8.824,30-8.824a59.117,59.117,0,0,1,19.091,2.941Z" transform="translate(-1 -4.5)" fill="#263126"/>
</svg>
