<svg xmlns="http://www.w3.org/2000/svg" width="129.063" height="101.032" viewBox="0 0 129.063 101.032">
  <g id="Group_40" data-name="Group 40" transform="translate(-142.093 -207.5)">
    <path id="ic_view_week_24px" d="M21.27,0H5.317C2.393,0,0,2.946,0,6.547V85.109c0,3.6,2.393,6.547,5.317,6.547H21.27c2.925,0,5.317-2.946,5.317-6.547V6.547C26.587,2.946,24.194,0,21.27,0ZM95.714,0H79.762c-2.925,0-5.317,2.946-5.317,6.547V85.109c0,3.6,2.393,6.547,5.317,6.547H95.714c2.925,0,5.317-2.946,5.317-6.547V6.547C101.032,2.946,98.639,0,95.714,0ZM58.492,0H42.54c-2.925,0-5.317,2.946-5.317,6.547V85.109c0,3.6,2.393,6.547,5.317,6.547H58.492c2.925,0,5.317-2.946,5.317-6.547V6.547C63.81,2.946,61.417,0,58.492,0Z" transform="translate(271.156 207.5) rotate(90)" fill="#263126"/>
    <path id="ic_compare_arrows_24px" d="M33.286,24.315H0v5.4H33.286v8.1L52.231,27.017,33.286,16.21Zm28.395-2.7v-8.1H94.966V8.1H61.68V0L42.735,10.807Z" transform="translate(142.093 305.305) rotate(-90)" fill="#263126"/>
  </g>
</svg>
