<svg xmlns="http://www.w3.org/2000/svg" width="91" height="100" viewBox="0 0 91 100">
  <g id="Group_49" data-name="Group 49" transform="translate(-1122 -367)">
    <path id="ic_library_books_24px" d="M11.1,22H2V92c0,5.5,4.1,10,9.1,10H74.8V92H11.1ZM83.9,2H29.3C24.3,2,20.2,6.5,20.2,12V72c0,5.5,4.1,10,9.1,10H83.9c5.005,0,9.1-4.5,9.1-10V12C93,6.5,88.905,2,83.9,2ZM79.35,47H33.85V37h45.5ZM61.15,67H33.85V57h27.3Zm18.2-40H33.85V17h45.5Z" transform="translate(1120 365)" fill="#263126"/>
    <path id="ic_sync_24px" d="M13.959,5.632l-.108-4.38L7.677,6.942l6.462,5.99-.108-4.38c5.228.124,9.574,4.152,9.693,8.985a7.786,7.786,0,0,1-1,4.062l2.359,2.186a10.527,10.527,0,0,0,1.805-6.174C26.723,11.158,20.94,5.8,13.959,5.632Zm.5,20.441c-5.228-.124-9.574-4.152-9.693-8.985a7.786,7.786,0,0,1,1-4.062L3.416,10.839a10.527,10.527,0,0,0-1.805,6.174c.159,6.454,5.942,11.815,12.923,11.981l.108,4.38,6.174-5.691-6.462-5.99Z" transform="translate(1213.846 415.064) rotate(90)" fill="#ebebeb"/>
  </g>
</svg>
