<svg xmlns="http://www.w3.org/2000/svg" width="97.482" height="116.799" viewBox="0 0 97.482 116.799">
  <g id="Group_51" data-name="Group 51" transform="translate(-1011 -555)">
    <g id="essay" transform="translate(1011 555)">
      <path id="ic_assignment_24px" d="M87.874,12.68H65.7C63.473,5.906,57.638,1,50.742,1S38.01,5.906,35.783,12.68H13.609C7.774,12.68,3,17.936,3,24.36v81.759c0,6.424,4.774,11.68,10.609,11.68H87.874c5.835,0,10.609-5.256,10.609-11.68V24.36C98.483,17.936,93.709,12.68,87.874,12.68Zm-37.132,0a5.608,5.608,0,0,1,5.3,5.84,5.608,5.608,0,0,1-5.3,5.84,5.608,5.608,0,0,1-5.3-5.84A5.608,5.608,0,0,1,50.742,12.68ZM61.351,94.439H24.218V82.759H61.351ZM77.265,71.08H24.218V59.4H77.265Zm0-23.36H24.218V36.04H77.265Z" transform="translate(-3 -1)" fill="#263126"/>
    </g>
    <path id="ic_sync_24px" d="M10.278,3.89,10.188,0,5.051,5.054l5.377,5.32-.09-3.89a8.314,8.314,0,0,1,8.066,7.98,7.286,7.286,0,0,1-.836,3.607l1.963,1.942a9.807,9.807,0,0,0,1.5-5.483A11.073,11.073,0,0,0,10.278,3.89ZM10.7,22.044a8.314,8.314,0,0,1-8.066-7.98,7.286,7.286,0,0,1,.836-3.607L1.5,8.515A9.807,9.807,0,0,0,0,14a11.073,11.073,0,0,0,10.754,10.64l.09,3.89,5.138-5.054-5.377-5.32Z" transform="translate(1108.482 647.92) rotate(90)" fill="#ebebeb"/>
  </g>
</svg>
