<svg xmlns="http://www.w3.org/2000/svg" width="130.415" height="60.105" viewBox="0 0 130.415 60.105">
  <g id="ic_border_color_24px" transform="translate(0 -17.997)">
    <path id="Path_81" data-name="Path 81" d="M44.435,20.59,33.407,9.562,4,38.97V50H15.028Zm8.7-8.7a2.929,2.929,0,0,0,0-4.146L46.258.858a2.929,2.929,0,0,0-4.146,0L36.348,6.622,47.376,17.649Z" transform="translate(76.415 18)" fill="#263126"/>
    <path id="Path_82" data-name="Path 82" d="M0,20H123.415v4H0Z" transform="translate(0 54.103)" fill="#263126"/>
    <path id="ic_backspace_24px" d="M22,3H7a1.882,1.882,0,0,0-1.59.88L0,12l5.41,8.11A1.891,1.891,0,0,0,7,21H22a2.006,2.006,0,0,0,2-2V5A2.006,2.006,0,0,0,22,3ZM19,15.59,17.59,17,14,13.41,10.41,17,9,15.59,12.59,12,9,8.41,10.41,7,14,10.59,17.59,7,19,8.41,15.41,12Z" transform="matrix(-0.848, -0.53, 0.53, -0.848, 60.438, 61.533)" fill="#263126"/>
  </g>
</svg>
