<svg xmlns="http://www.w3.org/2000/svg" width="90.884" height="110" viewBox="0 0 90.884 110">
  <g id="Group_2" data-name="Group 2" transform="translate(-471 -330)">
    <path id="ic_subject_24px" d="M60.25,17H4v2H60.25ZM94,9H4v2H94ZM4,15H94V13H4ZM4,5V7H94V5Z" transform="translate(467 325)" fill="#263126"/>
    <path id="ic_subject_24px-2" data-name="ic_subject_24px" d="M60.25,17H4v2H60.25ZM94,9H4v2H94ZM4,15H94V13H4ZM4,5V7H94V5Z" transform="translate(467 357.103)" fill="#263126"/>
    <path id="ic_subject_24px-3" data-name="ic_subject_24px" d="M60.25,17H4v2H60.25ZM94,9H4v2H94ZM4,15H94V13H4ZM4,5V7H94V5Z" transform="translate(467 389.103)" fill="#263126"/>
    <path id="Path_83" data-name="Path 83" d="M24.218,10.294,18.7,4.78,4,19.484V25H9.514ZM28.57,5.941a1.464,1.464,0,0,0,0-2.073L25.129.428a1.464,1.464,0,0,0-2.073,0L20.174,3.31l5.514,5.514Z" transform="translate(532 398.153)" fill="#fff" stroke="#263126" stroke-width="1.5"/>
    <path id="ic_subject_24px-4" data-name="ic_subject_24px" d="M60.25,17H4v2H60.25ZM94,9H4v2H94ZM4,15H94V13H4ZM4,5V7H94V5Z" transform="translate(467 421)" fill="#263126"/>
  </g>
</svg>
